<svg width="33" height="24" viewBox="0 0 33 24" fill="none" xmlns="http://www.w3.org/2000/svg">
<path d="M0.125 4C0.125 2.93913 0.546427 1.92172 1.29657 1.17157C2.04672 0.421427 3.06413 0 4.125 0H28.125C29.1859 0 30.2033 0.421427 30.9534 1.17157C31.7036 1.92172 32.125 2.93913 32.125 4V20C32.125 21.0609 31.7036 22.0783 30.9534 22.8284C30.2033 23.5786 29.1859 24 28.125 24H4.125C3.06413 24 2.04672 23.5786 1.29657 22.8284C0.546427 22.0783 0.125 21.0609 0.125 20V4ZM4.125 2C3.59457 2 3.08586 2.21071 2.71079 2.58579C2.33571 2.96086 2.125 3.46957 2.125 4V4.434L16.125 12.834L30.125 4.434V4C30.125 3.46957 29.9143 2.96086 29.5392 2.58579C29.1641 2.21071 28.6554 2 28.125 2H4.125ZM30.125 6.766L20.709 12.416L30.125 18.21V6.766ZM30.057 20.518L18.777 13.576L16.125 15.166L13.473 13.576L2.193 20.516C2.30665 20.9416 2.55763 21.3178 2.90698 21.5861C3.25633 21.8544 3.68449 21.9999 4.125 22H28.125C28.5652 22.0001 28.9932 21.8548 29.3425 21.5869C29.6918 21.3189 29.943 20.9432 30.057 20.518ZM2.125 18.21L11.541 12.416L2.125 6.766V18.21Z" fill="#9A9A9C"/>
</svg>
