<svg width="24" height="24" viewBox="0 0 24 24" fill="none" xmlns="http://www.w3.org/2000/svg">
<path d="M12.4819 0.251802C12.4023 0.171984 12.3077 0.108658 12.2036 0.0654494C12.0994 0.0222411 11.9878 0 11.8751 0C11.7623 0 11.6507 0.0222411 11.5466 0.0654494C11.4424 0.108658 11.3479 0.171984 11.2682 0.251802L0.983181 10.5369C0.90364 10.6166 0.840596 10.7112 0.797653 10.8154C0.75471 10.9195 0.73271 11.031 0.732912 11.1437V23.1429C0.732912 23.3702 0.823212 23.5882 0.983947 23.749C1.14468 23.9097 1.36269 24 1.59 24H9.30379C9.53111 24 9.74911 23.9097 9.90985 23.749C10.0706 23.5882 10.1609 23.3702 10.1609 23.1429V16.2862H13.5892V23.1429C13.5892 23.3702 13.6795 23.5882 13.8403 23.749C14.001 23.9097 14.219 24 14.4463 24H22.1601C22.3874 24 22.6054 23.9097 22.7662 23.749C22.9269 23.5882 23.0172 23.3702 23.0172 23.1429V11.1437C23.0174 11.031 22.9954 10.9195 22.9525 10.8154C22.9095 10.7112 22.8465 10.6166 22.7669 10.5369L20.4459 8.21758V2.5728C20.4459 2.34548 20.3556 2.12748 20.1949 1.96674C20.0342 1.80601 19.8162 1.71571 19.5889 1.71571H17.8747C17.6474 1.71571 17.4294 1.80601 17.2686 1.96674C17.1079 2.12748 17.0176 2.34548 17.0176 2.5728V4.78923L12.4819 0.251802ZM2.44709 22.2858V11.4985L11.8751 2.07054L21.303 11.4985V22.2858H15.3034V15.4291C15.3034 15.2018 15.2131 14.9838 15.0524 14.8231C14.8916 14.6623 14.6736 14.572 14.4463 14.572H9.30379C9.07648 14.572 8.85848 14.6623 8.69774 14.8231C8.53701 14.9838 8.44671 15.2018 8.44671 15.4291V22.2858H2.44709Z" fill="#F0F0F0"/>
</svg>
