<svg width="29" height="24" viewBox="0 0 29 24" fill="none" xmlns="http://www.w3.org/2000/svg">
<path d="M8.62493 8.57143C8.85226 8.57143 9.07028 8.48112 9.23102 8.32038C9.39177 8.15963 9.48207 7.94161 9.48207 7.71429C9.48207 7.48696 9.39177 7.26894 9.23102 7.10819C9.07028 6.94745 8.85226 6.85714 8.62493 6.85714C8.3976 6.85714 8.17958 6.94745 8.01884 7.10819C7.85809 7.26894 7.76779 7.48696 7.76779 7.71429C7.76779 7.94161 7.85809 8.15963 8.01884 8.32038C8.17958 8.48112 8.3976 8.57143 8.62493 8.57143ZM11.1964 8.57143C11.4237 8.57143 11.6417 8.48112 11.8025 8.32038C11.9632 8.15963 12.0535 7.94161 12.0535 7.71429C12.0535 7.48696 11.9632 7.26894 11.8025 7.10819C11.6417 6.94745 11.4237 6.85714 11.1964 6.85714C10.969 6.85714 10.751 6.94745 10.5903 7.10819C10.4295 7.26894 10.3392 7.48696 10.3392 7.71429C10.3392 7.94161 10.4295 8.15963 10.5903 8.32038C10.751 8.48112 10.969 8.57143 11.1964 8.57143ZM14.6249 7.71429C14.6249 7.94161 14.5346 8.15963 14.3739 8.32038C14.2131 8.48112 13.9951 8.57143 13.7678 8.57143C13.5405 8.57143 13.3224 8.48112 13.1617 8.32038C13.0009 8.15963 12.9106 7.94161 12.9106 7.71429C12.9106 7.48696 13.0009 7.26894 13.1617 7.10819C13.3224 6.94745 13.5405 6.85714 13.7678 6.85714C13.9951 6.85714 14.2131 6.94745 14.3739 7.10819C14.5346 7.26894 14.6249 7.48696 14.6249 7.71429Z" fill="#9A9A9C"/>
<path d="M21.4821 0C22.3914 0 23.2635 0.361224 23.9064 1.00421C24.5494 1.64719 24.9106 2.51926 24.9106 3.42857C25.82 3.42857 26.692 3.78979 27.335 4.43278C27.978 5.07576 28.3392 5.94783 28.3392 6.85714V20.5714C28.3392 21.4807 27.978 22.3528 27.335 22.9958C26.692 23.6388 25.82 24 24.9106 24H7.76779C6.85847 24 5.9864 23.6388 5.34342 22.9958C4.70044 22.3528 4.33922 21.4807 4.33922 20.5714C3.4299 20.5714 2.55783 20.2102 1.91485 19.5672C1.27187 18.9242 0.910645 18.0522 0.910645 17.1429V3.42857C0.910645 2.51926 1.27187 1.64719 1.91485 1.00421C2.55783 0.361224 3.4299 0 4.33922 0H21.4821ZM4.33922 18.8571V6.85714C4.33922 5.94783 4.70044 5.07576 5.34342 4.43278C5.9864 3.78979 6.85847 3.42857 7.76779 3.42857H23.1964C23.1964 2.97391 23.0157 2.53788 22.6943 2.21639C22.3728 1.8949 21.9367 1.71429 21.4821 1.71429H4.33922C3.88456 1.71429 3.44852 1.8949 3.12703 2.21639C2.80554 2.53788 2.62493 2.97391 2.62493 3.42857V17.1429C2.62493 17.5975 2.80554 18.0335 3.12703 18.355C3.44852 18.6765 3.88456 18.8571 4.33922 18.8571ZM6.0535 12V20.5714C6.0535 21.0261 6.23411 21.4621 6.5556 21.7836C6.87709 22.1051 7.31313 22.2857 7.76779 22.2857H24.9106C25.3653 22.2857 25.8013 22.1051 26.1228 21.7836C26.4443 21.4621 26.6249 21.0261 26.6249 20.5714V12H6.0535ZM26.6249 10.2857V6.85714C26.6249 6.40249 26.4443 5.96645 26.1228 5.64496C25.8013 5.32347 25.3653 5.14286 24.9106 5.14286H7.76779C7.31313 5.14286 6.87709 5.32347 6.5556 5.64496C6.23411 5.96645 6.0535 6.40249 6.0535 6.85714V10.2857H26.6249Z" fill="#9A9A9C"/>
</svg>
